<?xml version="1.0" encoding="UTF-8"?>
<svg id="Layer_1" xmlns="http://www.w3.org/2000/svg" xmlns:xlink="http://www.w3.org/1999/xlink" viewBox="0 0 1160 438">
  <defs>
    <style>
      .cls-1 {
        fill: #222831;
      }

      .cls-2 {
        fill: url(#linear-gradient);
      }
    </style>
    <linearGradient id="linear-gradient" x1="908.484" y1="258.514" x2="989.5" y2="177.498" gradientUnits="userSpaceOnUse">
      <stop offset="0" stop-color="#fa5058"/>
      <stop offset="1" stop-color="#66cfd0"/>
    </linearGradient>
  </defs>
  <g>
    <path class="cls-1" d="M230.45,268.32c0,37.636-26.469,59.409-77.202,59.409H63.638c-5.634,0-10.201-5.152-10.201-11.507v-185.256c0-11.58,8.321-20.967,18.586-20.967h75.711c48.251,0,73.066,22.706,73.066,56.61,0,21.773-9.926,38.57-25.642,47.9,21.506,7.776,35.292,26.439,35.292,53.81ZM97.829,147.947v51.323h44.39c21.782,0,33.638-8.71,33.638-25.817s-11.855-25.506-33.638-25.506h-44.39ZM185.508,263.033c0-18.351-12.407-27.06-35.567-27.06h-52.111v53.81h52.111c23.16,0,35.567-8.087,35.567-26.75Z"/>
    <path class="cls-1" d="M432.552,327.73l-.277-130.637-56.798,107.62h-20.128l-56.523-104.821v127.837h-41.909V110h36.947l72.237,135.303,71.136-135.303h36.671l.551,217.73h-41.909Z"/>
    <path class="cls-1" d="M636.741,216.08h39.364v85.215c-20.48,17.403-48.674,26.705-75.271,26.705-58.515,0-101.604-45.307-101.604-108.618s43.089-108.618,102.402-108.618c32.715,0,59.844,12.602,77.93,36.305l-27.661,28.805c-13.565-16.203-29.258-23.703-48.142-23.703-36.172,0-60.908,27.304-60.908,67.211,0,39.307,24.736,67.211,60.377,67.211,11.702,0,22.607-2.401,33.513-9.003v-61.51Z"/>
  </g>
  <path class="cls-1" d="M838.22,59.623h217.342c28.148,0,51,22.852,51,51v217.342c0,27.823-22.589,50.412-50.412,50.412h-217.93c-27.823,0-50.412-22.589-50.412-50.412V110.035c0-27.823,22.589-50.412,50.412-50.412Z"/>
  <path class="cls-2" d="M946.02,120.794h3.957c7.881,0,14.269,6.389,14.269,14.269v53.501c0,7.881,6.389,14.269,14.269,14.269h51.568c7.881,0,14.269,6.389,14.269,14.269v3.473c0,7.881-6.389,14.269-14.269,14.269h-51.568c-7.881,0-14.269,6.389-14.269,14.269v53.822c0,7.881-6.389,14.269-14.269,14.269h-3.957c-7.881,0-14.269-6.389-14.269-14.269v-53.822c0-7.881-6.389-14.269-14.269-14.269h-51.568c-7.881,0-14.269-6.389-14.269-14.269v-3.473c0-7.881,6.389-14.269,14.269-14.269h51.568c7.881,0,14.269-6.389,14.269-14.269v-53.501c0-7.881,6.389-14.269,14.269-14.269Z"/>
</svg>