<?xml version="1.0" encoding="UTF-8"?>
<svg id="Layer_1" xmlns="http://www.w3.org/2000/svg" xmlns:xlink="http://www.w3.org/1999/xlink" viewBox="0 0 515 515">
  <defs>
    <style>
      .cls-1 {
        fill: #222831;
      }

      .cls-2 {
        fill: url(#linear-gradient);
      }

      .cls-3 {
        fill: #f5ecfc;
      }
    </style>
    <linearGradient id="linear-gradient" x1="318.87" y1="300.989" x2="408.433" y2="211.426" gradientUnits="userSpaceOnUse">
      <stop offset="0" stop-color="#fa5058"/>
      <stop offset="1" stop-color="#66cfd0"/>
    </linearGradient>
  </defs>
  <rect class="cls-1" x="1.5" y="1.5" width="512" height="512" rx="74.901" ry="74.901"/>
  <g>
    <path class="cls-2" d="M360.366,148.74h4.375c8.712,0,15.775,7.063,15.775,15.775v59.145c0,8.712,7.063,15.775,15.775,15.775h57.009c8.712,0,15.775,7.063,15.775,15.775v3.839c0,8.712-7.063,15.775-15.775,15.775h-57.009c-8.712,0-15.775,7.063-15.775,15.775v59.501c0,8.712-7.063,15.775-15.775,15.775h-4.375c-8.712,0-15.775-7.063-15.775-15.775v-59.501c0-8.712-7.063-15.775-15.775-15.775h-57.009c-8.712,0-15.775-7.063-15.775-15.775v-3.839c0-8.712,7.063-15.775,15.775-15.775h57.009c8.712,0,15.775-7.063,15.775-15.775v-59.145c0-8.712,7.063-15.775,15.775-15.775Z"/>
    <path class="cls-3" d="M222.939,306.955c0,37.636-26.469,59.409-77.202,59.409H56.127c-5.634,0-10.201-5.152-10.201-11.507v-185.256c0-11.58,8.321-20.967,18.586-20.967h75.711c48.251,0,73.066,22.706,73.066,56.61,0,21.773-9.926,38.57-25.642,47.9,21.506,7.776,35.292,26.439,35.292,53.81ZM90.318,186.582v51.323h44.39c21.782,0,33.638-8.71,33.638-25.817s-11.855-25.506-33.638-25.506h-44.39ZM177.997,301.668c0-18.351-12.407-27.06-35.567-27.06h-52.111v53.81h52.111c23.16,0,35.567-8.087,35.567-26.75Z"/>
  </g>
</svg>