<?xml version="1.0" encoding="UTF-8"?>
<svg id="Layer_1" xmlns="http://www.w3.org/2000/svg" xmlns:xlink="http://www.w3.org/1999/xlink" version="1.1" viewBox="0 0 93.87 64.18">
  <!-- Generator: Adobe Illustrator 29.0.0, SVG Export Plug-In . SVG Version: 2.1.0 Build 186)  -->
  <defs>
    <clipPath id="clippath">
      <rect x="13.455" y="9.2" width="66.959" height="45.781" fill="none"/>
    </clipPath>
  </defs>
  <g clip-path="url(#clippath)">
    <g id="Group_20">
      <path id="Path_58" d="M69.687,54.981H24.18c-5.921-.007-10.719-4.806-10.725-10.728v-24.326c.006-5.921,4.804-10.72,10.725-10.728h45.506c5.922.006,10.722,4.805,10.728,10.728v24.326c-.007,5.921-4.806,10.719-10.728,10.725M24.18,13.417c-3.59.012-6.497,2.92-6.508,6.511v24.326c.01,3.591,2.919,6.5,6.511,6.511h45.504c3.591-.01,6.5-2.919,6.511-6.511v-24.326c-.01-3.591-2.919-6.5-6.511-6.511H24.18Z" fill="#fff"/>
      <path id="Path_59" d="M58.54,32.089c0,6.41-5.196,11.606-11.606,11.606s-11.606-5.196-11.606-11.606,5.196-11.606,11.606-11.606,11.606,5.196,11.606,11.606h0" fill="#fff"/>
      <path id="Path_60" d="M70.753,24.21h-4.835c-.377,0-.683-.306-.683-.683v-4.846c0-.377.306-.683.683-.683h4.835c.377,0,.683.306.683.683v4.835c0,.377-.306.683-.683.683" fill="#fff"/>
    </g>
  </g>
</svg>