<svg xmlns="http://www.w3.org/2000/svg" xmlns:xlink="http://www.w3.org/1999/xlink" width="90" height="90" viewBox="0 0 90 90">
  <defs>
    <clipPath id="clip-path">
      <rect id="Rect치ngulo_18" data-name="Rect치ngulo 18" width="90" height="90" fill="#414d5f"/>
    </clipPath>
    <clipPath id="clip-path-2">
      <rect id="Rect치ngulo_1115" data-name="Rect치ngulo 1115" width="46.508" height="48.044" fill="#414d5f"/>
    </clipPath>
  </defs>
  <g id="Grupo_16" data-name="Grupo 16" clip-path="url(#clip-path)">
    <path id="Trazado_42" data-name="Trazado 42" d="M45,90A45,45,0,1,1,90,45,45.052,45.052,0,0,1,45,90M45,5.7A39.3,39.3,0,1,0,84.3,45,39.344,39.344,0,0,0,45,5.7" fill="#414d5f"/>
    <g id="Grupo_2536" data-name="Grupo 2536" transform="translate(21.745 20.979)">
      <g id="Grupo_2535" data-name="Grupo 2535" transform="translate(0 0)" clip-path="url(#clip-path-2)">
        <path id="Trazado_836" data-name="Trazado 836" d="M46.506,12.2a.3.3,0,0,0-.185-.312.65.65,0,0,1-.171-.089C38.665,7.9,31.026,3.945,23.456.037a.5.5,0,0,0-.371,0C15.542,3.95,7.892,7.913.346,11.816a.625.625,0,0,1-.081.039A.4.4,0,0,0,0,12.27q0,.03,0,.062C.016,20.1.016,27.989,0,35.766a.686.686,0,0,1,0,.075.247.247,0,0,0,.154.26l.064.027Q11.6,42.043,22.966,47.956l.037.023a.449.449,0,0,0,.468,0l.037-.021c7.531-3.931,15.163-7.9,22.683-11.781l.075-.032a.35.35,0,0,0,.22-.363q0-.03,0-.059c-.013-3.824-.018-7.752-.013-11.642a.71.71,0,0,1,0-.119V21.137c0-2.9,0-5.905.013-8.858q0-.038,0-.075M20.9,40.468a5.684,5.684,0,0,1-.059.57.667.667,0,0,1-.644.57.637.637,0,0,1-.138-.016,3.637,3.637,0,0,1-.582-.185l-.051-.023c-4.615-2.378-9.283-4.811-13.865-7.226l-.046-.027a1.815,1.815,0,0,1-.822-1.325.785.785,0,0,1,0-.082c-.013-3.876,0-7.791,0-11.585V15.353a3.982,3.982,0,0,1,.029-.408c0-.073.015-.155.024-.258a.686.686,0,0,1,.33-.527.638.638,0,0,1,.606-.024l1.69.876,2.705,1.4c3.272,1.71,6.575,3.42,9.823,5.1l.073.043a1.568,1.568,0,0,1,.927,1.493V40.461m3.461-22.144a1.718,1.718,0,0,1-.545-.078H23.79a.648.648,0,0,1-.112-.052C20,16.281,16.283,14.347,12.6,12.42l-.051-.03a3.912,3.912,0,0,1-.371-.271.7.7,0,0,1-.24-.578A.688.688,0,0,1,12.255,11l.22-.132c.156-.1.305-.189.464-.274l2.114-1.1C17.8,8.054,20.658,6.567,23.48,5.126a1.964,1.964,0,0,1,1.538-.1l.077.034c2.993,1.523,6.021,3.1,8.949,4.624l1.918,1h.02a6,6,0,0,1,.6.39.694.694,0,0,1,.27.6.686.686,0,0,1-.354.556l-7.369,3.849-1.048.547c-.963.5-1.96,1.026-2.958,1.516a1.693,1.693,0,0,1-.765.182m16.5,15.9a.63.63,0,0,1-.088.032L27.148,41.325l-.037.018a6.812,6.812,0,0,1-.688.258.64.64,0,0,1-.578-.107.693.693,0,0,1-.266-.542V39.1c.015-5.29.015-10.648,0-15.924a1.618,1.618,0,0,1,.947-1.642q6.758-3.5,13.513-7a.635.635,0,0,1,.081-.05c.165-.084.327-.155.532-.244l.253-.109a.639.639,0,0,1,.614.062.691.691,0,0,1,.3.562V32.558a1.644,1.644,0,0,1-.941,1.667" transform="translate(-0.001 -0.001)" fill="#414d5f"/>
      </g>
    </g>
  </g>
</svg>
