<svg xmlns="http://www.w3.org/2000/svg" width="60" height="60" viewBox="0 0 60 60">
  <g id="Grupo_3159" data-name="Grupo 3159" transform="translate(6281 -5744)">
    <path id="Trazado_1743" data-name="Trazado 1743" d="M30,56.25A26.25,26.25,0,1,1,56.25,30,26.25,26.25,0,0,1,30,56.25M30,60A30,30,0,1,0,0,30,30,30,0,0,0,30,60" transform="translate(-6281 5744)" fill="#fff"/>
    <path id="Trazado_1744" data-name="Trazado 1744" d="M19.081,5A2.716,2.716,0,0,1,21.8,7.716v20.6l6.224-6.23a2.719,2.719,0,1,1,3.845,3.845L21,36.794a2.716,2.716,0,0,1-3.845,0L6.3,25.932a2.719,2.719,0,1,1,3.845-3.845l6.224,6.23V7.716A2.716,2.716,0,0,1,19.081,5" transform="translate(-6270.081 5752.704)" fill="#fff"/>
  </g>
</svg>
