<svg id="x-circle" xmlns="http://www.w3.org/2000/svg" width="60" height="60" viewBox="0 0 60 60">
  <path id="Trazado_1741" data-name="Trazado 1741" d="M30,56.25A26.25,26.25,0,1,1,56.25,30,26.25,26.25,0,0,1,30,56.25M30,60A30,30,0,1,0,0,30,30,30,0,0,0,30,60" fill="#fff"/>
  <path id="Trazado_1742" data-name="Trazado 1742" d="M5.124,5.124a2.126,2.126,0,0,1,3.01,0L19.385,16.379,30.635,5.124a2.129,2.129,0,1,1,3.01,3.01L22.391,19.385,33.646,30.635a2.129,2.129,0,1,1-3.01,3.01L19.385,22.391,8.134,33.646a2.129,2.129,0,1,1-3.01-3.01L16.379,19.385,5.124,8.134a2.126,2.126,0,0,1,0-3.01" transform="translate(10.616 10.616)" fill="#fff"/>
</svg>
