<svg id="play-circle" xmlns="http://www.w3.org/2000/svg" width="60" height="60" viewBox="0 0 60 60">
  <path id="Trazado_1737" data-name="Trazado 1737" d="M30,56.25A26.25,26.25,0,1,1,56.25,30,26.25,26.25,0,0,1,30,56.25M30,60A30,30,0,1,0,0,30,30,30,0,0,0,30,60" fill="#fff"/>
  <path id="Trazado_1738" data-name="Trazado 1738" d="M7.6,5.327a2.95,2.95,0,0,1,3.068.224L31.32,20.3a2.95,2.95,0,0,1,0,4.8L10.667,39.858A2.95,2.95,0,0,1,6,37.456V7.953A2.95,2.95,0,0,1,7.6,5.327" transform="translate(13.958 7.296)" fill="#fff"/>
</svg>
