<svg xmlns="http://www.w3.org/2000/svg" width="46.193" height="34.646" viewBox="0 0 46.193 34.646">
  <g id="card-list" transform="translate(0 -2)">
    <path id="Trazado_860" data-name="Trazado 860" d="M41.863,4.887a1.444,1.444,0,0,1,1.444,1.444V32.314a1.444,1.444,0,0,1-1.444,1.444H4.331a1.444,1.444,0,0,1-1.444-1.444V6.331A1.444,1.444,0,0,1,4.331,4.887ZM4.331,2A4.331,4.331,0,0,0,0,6.331V32.314a4.331,4.331,0,0,0,4.331,4.331H41.863a4.331,4.331,0,0,0,4.331-4.331V6.331A4.331,4.331,0,0,0,41.863,2Z" fill="#063f71"/>
    <path id="Trazado_861" data-name="Trazado 861" d="M8.774,13.661a1.444,1.444,0,0,1,1.444-1.444h20.21a1.444,1.444,0,0,1,0,2.887H10.218a1.444,1.444,0,0,1-1.444-1.444m0-7.218A1.444,1.444,0,0,1,10.218,5h20.21a1.444,1.444,0,0,1,0,2.887H10.218A1.444,1.444,0,0,1,8.774,6.444m0,14.435a1.444,1.444,0,0,1,1.444-1.444h20.21a1.444,1.444,0,0,1,0,2.887H10.218a1.444,1.444,0,0,1-1.444-1.444M5.887,6.444A1.444,1.444,0,1,1,4.444,5,1.444,1.444,0,0,1,5.887,6.444m0,7.218a1.444,1.444,0,1,1-1.444-1.444,1.444,1.444,0,0,1,1.444,1.444m0,7.218a1.444,1.444,0,1,1-1.444-1.444,1.444,1.444,0,0,1,1.444,1.444" transform="translate(5.661 5.661)" fill="#063f71"/>
  </g>
</svg>
