<svg xmlns="http://www.w3.org/2000/svg" xmlns:xlink="http://www.w3.org/1999/xlink" width="87" height="87" viewBox="0 0 87 87">
  <defs>
    <clipPath id="clip-path">
      <rect id="Rectángulo_1189" data-name="Rectángulo 1189" width="55.646" height="68.502" fill="none"/>
    </clipPath>
  </defs>
  <g id="Grupo_3158" data-name="Grupo 3158" transform="translate(-367 -628)">
    <g id="Grupo_221" data-name="Grupo 221" transform="translate(270.53 -91.875)">
      <g id="Elipse_17" data-name="Elipse 17" transform="translate(96.47 719.875)" fill="#00d498" stroke="#063f71" stroke-width="3">
        <circle cx="43.5" cy="43.5" r="43.5" stroke="none"/>
        <circle cx="43.5" cy="43.5" r="42" fill="none"/>
      </g>
    </g>
    <g id="Grupo_2291" data-name="Grupo 2291" transform="translate(383.177 638.921)">
      <g id="Grupo_2290" data-name="Grupo 2290" clip-path="url(#clip-path)">
        <path id="Trazado_977" data-name="Trazado 977" d="M55.235,7.918a1.417,1.417,0,0,0-1.09.144,5.091,5.091,0,0,0-.936.966l-6.38,6.835L45.091,13.6l5.828-7.672c1.09-1.435,2.22-2.841,3.244-4.322A4.32,4.32,0,0,0,54.5.058c-.563.033-1.126.064-1.688.1-.04,0-.078.043-.117.066Q45.975,4.255,39.25,8.278a15.3,15.3,0,0,1-1.582.68c.678-2.427,1.29-4.476,1.8-6.549a4.422,4.422,0,0,0-.21-1.555,4.772,4.772,0,0,0-1.535.511,52.462,52.462,0,0,0-4.4,3.8A4.95,4.95,0,0,1,28.77,6.8c-1.144-.173-2.343.057-3.51-.015a3.108,3.108,0,0,1-1.666-.562c-1.726-1.377-3.361-2.867-5.069-4.268-.65-.533-1.281-1.713-2.2-.984-.391.312-.145,1.617.039,2.419.4,1.761.951,3.49,1.44,5.231l-.283.247c-.416-.2-.85-.36-1.244-.594C14.034,6.941,11.8,5.592,9.558,4.247,7.28,2.878,5.02,1.479,2.71.167A4.136,4.136,0,0,0,1.14,0a13.041,13.041,0,0,0,.27,1.665c.08.28.376.5.567.748q4.25,5.6,8.5,11.2L8.713,15.863c-2.288-2.471-4.5-4.9-6.769-7.267A5.079,5.079,0,0,0,.389,7.844,4.72,4.72,0,0,0,.015,9.518c.567,3.374,1.21,6.735,1.855,10.095a8.922,8.922,0,0,0,5.425,7.065,4.254,4.254,0,0,1,.851.649l-.193.4c-1.878,0-3.759-.047-5.634.033-.486.021-.954.44-1.431.676.314.432.535,1.027.958,1.27,2.026,1.164,4.1,2.244,6.168,3.333a4.618,4.618,0,0,1,2.438,2.806A7.872,7.872,0,0,0,12.8,39.168a7.737,7.737,0,0,1,3.089,6.3c-.021,2.21-.06,4.423.024,6.631A11.906,11.906,0,0,0,34.072,61.78,11.648,11.648,0,0,0,39.7,51.748c.129-3.171-.57-6.409.566-9.521v0c.047-.129.1-.258.15-.386,0,0,0-.006,0-.009.52-1.147,1.509-1.556,2.145-2.165a16.51,16.51,0,0,0,1.722-2.309c.044-.067.087-.135.13-.2l.031-.05h0a10.909,10.909,0,0,0,.848-1.638,3.406,3.406,0,0,1,1.575-2q3.581-1.887,7.089-3.909a1.485,1.485,0,0,0,.608-1.15c-.011-.239-.615-.544-1-.647a5.374,5.374,0,0,0-1.346-.027H47.57l-.151-.411a8.146,8.146,0,0,1,1.162-.805,8.421,8.421,0,0,0,4.922-6.2c.58-2.771,1.08-5.56,1.606-8.342.2-1.059.412-2.118.533-3.187a1.026,1.026,0,0,0-.408-.868" transform="translate(0)" fill="#fff"/>
        <path id="Trazado_978" data-name="Trazado 978" d="M55.234,7.918a1.417,1.417,0,0,0-1.09.144,5.1,5.1,0,0,0-.936.966l-6.38,6.835L45.09,13.6l5.828-7.672c1.09-1.435,2.22-2.841,3.243-4.322A4.319,4.319,0,0,0,54.5.058c-.563.033-1.126.064-1.688.1-.04,0-.078.043-.117.066q-6.721,4.03-13.446,8.053a15.326,15.326,0,0,1-1.582.68c.678-2.427,1.29-4.475,1.8-6.549a4.413,4.413,0,0,0-.21-1.555,4.769,4.769,0,0,0-1.535.511,52.5,52.5,0,0,0-4.4,3.8A4.95,4.95,0,0,1,28.77,6.8c-1.144-.173-2.344.058-3.511-.015a3.109,3.109,0,0,1-1.666-.562c-1.726-1.377-3.361-2.867-5.069-4.268-.65-.533-1.281-1.713-2.2-.984-.391.312-.144,1.617.039,2.419.4,1.761.951,3.49,1.44,5.231l-.283.247c-.416-.2-.851-.36-1.244-.594C14.034,6.941,11.8,5.592,9.558,4.247,7.28,2.878,5.02,1.479,2.71.167A4.14,4.14,0,0,0,1.14,0a13.1,13.1,0,0,0,.27,1.665c.08.28.376.5.567.748q4.25,5.6,8.5,11.2L8.713,15.863c-2.288-2.471-4.5-4.9-6.769-7.267A5.077,5.077,0,0,0,.388,7.844,4.716,4.716,0,0,0,.014,9.518c.567,3.374,1.21,6.735,1.855,10.095a8.923,8.923,0,0,0,5.425,7.065,4.24,4.24,0,0,1,.851.649l-.193.4c-1.878,0-3.759-.048-5.633.032-.486.021-.955.44-1.431.676.314.432.535,1.027.958,1.27,2.026,1.164,4.1,2.244,6.169,3.333a4.619,4.619,0,0,1,2.438,2.806A7.871,7.871,0,0,0,12.8,39.168a7.738,7.738,0,0,1,3.089,6.3c-.022,2.21-.06,4.423.024,6.631A11.906,11.906,0,0,0,34.072,61.78,11.647,11.647,0,0,0,39.7,51.748c.129-3.171-.57-6.409.566-9.521v0c.047-.129.1-.258.15-.386,0,0,0-.006,0-.009.52-1.147,1.509-1.556,2.145-2.165a16.5,16.5,0,0,0,1.722-2.309c.044-.068.087-.135.13-.2l.031-.05h0a10.925,10.925,0,0,0,.848-1.638,3.406,3.406,0,0,1,1.576-2q3.58-1.887,7.089-3.909a1.486,1.486,0,0,0,.608-1.15c-.011-.239-.615-.544-1-.647a5.374,5.374,0,0,0-1.346-.027H47.57l-.151-.411a8.134,8.134,0,0,1,1.162-.805,8.421,8.421,0,0,0,4.922-6.2c.58-2.771,1.08-5.56,1.606-8.342.2-1.059.413-2.118.533-3.187a1.025,1.025,0,0,0-.408-.868M49.508,4.263l.2.224-5.9,7.785L40.327,9.778l9.181-5.516m-12.464.052L36.036,7.952,33.592,7.3l3.452-2.989M21.973,7.284l-2.409.661L18.469,4.306l3.5,2.978M5.866,4.512l.2-.233,9.169,5.5-3.48,2.481L5.866,4.512m4.9,11.741A17.8,17.8,0,0,1,21.544,9.335c7.06-1.682,13.8-.913,19.808,3.447a39.641,39.641,0,0,1,4.343,4.287c-.763.833-1.233,1.317-1.67,1.829a1.618,1.618,0,0,1-1.937.73c-.92-.273-1.412-.647-1.466-1.592a5.742,5.742,0,0,0-.147-.794c-.345-1.714-.487-1.858-2.248-1.6-1.32.2-2.247.036-2.922-1.368-.919-1.91-1.082-1.921-2.979-.988a2.2,2.2,0,0,1-2.957-.444c-1.506-1.523-1.64-1.52-3.148-.03a2.333,2.333,0,0,1-3.084.481c-1.848-.9-1.989-.865-2.879.924a2.425,2.425,0,0,1-2.868,1.493c-1.942-.233-1.925-.132-2.414,1.865-.2.8-.023,1.847-1.341,2.029-.966.133-3.39-1.328-3.4-2.3a2.127,2.127,0,0,1,.524-1.056m23.778.1-6.781,7.669-6.724-7.606.941-1.563c1.114.368,2.221,1.095,3.2.952.924-.134,1.715-1.184,2.635-1.884a4.811,4.811,0,0,1,.628.511,2.85,2.85,0,0,0,4.186.714c1.491-.931,1.214.925,1.914,1.206M5.9,29.893l.052-.263H8.605l.5,1.9L5.9,29.893m2.787-4.65a6.758,6.758,0,0,1-4.816-5.167A64.541,64.541,0,0,1,2.55,11.938q2.477,2.64,4.953,5.281a41.559,41.559,0,0,0,4.637,4.89,38.28,38.28,0,0,0,6.378,3.633,5.188,5.188,0,0,1,3.1,3.578c-2.941-.914-5.633-1.745-8.322-2.59-1.54-.484-3.072-1-4.61-1.487m13.491,7.418c-4.417.383-5.271-.1-5.931-3.1,1.7.525,3.374.972,4.983,1.588.387.148.558.859.948,1.509m21.351,2.23a21.887,21.887,0,0,1-1.505,2.628c-3.364,2.945-3.668,4.707-3.668,4.707h0a3.968,3.968,0,0,0-.253,1.138c-.144,2.7-.206,5.4-.222,8.1A10.252,10.252,0,0,1,36.3,57.1a10.094,10.094,0,0,1-11.192,4.323,10.39,10.39,0,0,1-7.365-9.508c-.067-2.208-.005-4.421-.035-6.631a8.6,8.6,0,0,0-3.527-7.246A5.837,5.837,0,0,1,11.9,34.671c-.441-1.6-.917-3.195-1.353-4.8-.192-.7-.323-1.424-.476-2.113,2.729.215,4.356,1.39,5.017,4.053a3.872,3.872,0,0,0,4.136,2.815c.841-.012,1.683,0,2.5,0a5.094,5.094,0,0,1,.093.584c0,.681.121,1.435.969,1.225.391-.1.789-.836.877-1.338a18.561,18.561,0,0,0,.052-2.564c.169-5.062-1.01-6.918-5.665-8.974-1.329-.587-2.627-1.246-3.939-1.871l-.189-.445c2.361.142,2.5-1.423,2.756-2.93.045-.27.3-.74.412-.727.9.1,2.009.018,2.629.519a43.575,43.575,0,0,1,4.343,4.252,9.63,9.63,0,0,1,2.691,5.912c.089,1.122.054,2.257.2,3.37.041.313.534.8.8.789.3-.014.716-.446.848-.787a3.894,3.894,0,0,0,.06-1.34,11.567,11.567,0,0,1,3.7-8.958,23.029,23.029,0,0,0,2.381-2.4,3.876,3.876,0,0,1,3.879-1.419c.52,1.551.111,3.841,2.966,3.9a47.992,47.992,0,0,1-5.179,2.6A6.959,6.959,0,0,0,31.9,31.026c.017,6.225-.043,12.45,0,18.675.014,1.922.037,3.745-1.578,5.18-.265.236-.063,1-.078,1.517.5-.15,1.168-.147,1.465-.478a47.075,47.075,0,0,0,3.21-4.005,6.289,6.289,0,0,0,.593-1.76l-1.684-.223V34.617c.968,0,1.82-.006,2.672,0a4.09,4.09,0,0,0,3.96-2.7c.323-.838.651-1.676,1.028-2.49a1.476,1.476,0,0,1,.647-.763c1.073-.391,2.179-.687,3.5-1.089-.734,2.592-1.335,4.984-2.111,7.318m-8.713-3.963c1.484-.362,2.932-.867,4.527-1.35-1.016,3.18-1.713,3.547-5.5,3.077-.291-.917-.083-1.471.969-1.727m15.194-1.3-3.455,1.9c.372-2.054.372-2.054,3.455-1.9M51.523,20.7a5.839,5.839,0,0,1-3.757,4.166c-4.511,1.568-9.081,2.963-13.791,4.481a3.933,3.933,0,0,1,2.155-3.077c1.3-.712,2.722-1.192,3.989-1.947a19.481,19.481,0,0,0,3.889-2.792c2.635-2.643,5.111-5.444,7.638-8.195.45-.489.831-1.042,1.244-1.565l.384.275c-.57,2.888-1.023,5.806-1.75,8.653" transform="translate(0)" fill="#063f71"/>
        <path id="Trazado_979" data-name="Trazado 979" d="M112.471,224.289a4.593,4.593,0,0,1-1.319-3.761c.1-3.471.027-6.946.036-10.42,0-.706.01-1.514-.89-1.532-1.009-.021-.966.838-.964,1.584.009,3.246,0,6.493,0,9.575a6.989,6.989,0,0,0-1.72.16c-.139.048-.237.836-.064,1.064,1.335,1.757,2.724,3.475,4.15,5.16a.967.967,0,0,0,.953.081,1.352,1.352,0,0,0,.384-1.023,1.667,1.667,0,0,0-.568-.888" transform="translate(-87.474 -169.783)" fill="#063f71"/>
        <path id="Trazado_980" data-name="Trazado 980" d="M232.347,321.41a7.105,7.105,0,0,0-2.271-.449c-.805.114-1.922,1.354-1.922,1.354a5.623,5.623,0,0,0,.467-2.292,6.513,6.513,0,0,0-1.371-1.9,5.469,5.469,0,0,0,2.22.338,7.048,7.048,0,0,0,1.971-1.243,5.968,5.968,0,0,0-.333,2.348,5.411,5.411,0,0,0,1.239,1.844" transform="translate(-184.984 -258.218)" fill="#fff"/>
        <path id="Trazado_981" data-name="Trazado 981" d="M225.3,320.114a.652.652,0,0,1-.6-.9,4.859,4.859,0,0,0,.435-1.9,5.7,5.7,0,0,0-1.2-1.586.652.652,0,0,1,.68-1.075,4.653,4.653,0,0,0,1.852.318,6.164,6.164,0,0,0,1.695-1.1.652.652,0,0,1,1.044.7,5.133,5.133,0,0,0-.317,1.988,4.68,4.68,0,0,0,1.066,1.535.652.652,0,0,1-.679,1.075,6.257,6.257,0,0,0-1.961-.418,4.106,4.106,0,0,0-1.529,1.145.651.651,0,0,1-.485.216m.773-3.821a2.551,2.551,0,0,1,.33.731,2.254,2.254,0,0,1,.032.68,2.2,2.2,0,0,1,.7-.241,2.841,2.841,0,0,1,.729.012,2.619,2.619,0,0,1-.24-.614,3.037,3.037,0,0,1-.037-.968,3.23,3.23,0,0,1-.816.35,2.535,2.535,0,0,1-.693.05" transform="translate(-182.131 -255.365)" fill="#063f71"/>
        <path id="Trazado_982" data-name="Trazado 982" d="M258.073,261.019a.652.652,0,0,1-.55-.3l-.675-1.053a.652.652,0,0,1,1.1-.7l.675,1.053a.652.652,0,0,1-.548,1" transform="translate(-208.993 -210.553)" fill="#063f71"/>
        <path id="Trazado_983" data-name="Trazado 983" d="M273.322,285.992a.652.652,0,0,1-.55-.3l-.669-1.049a.652.652,0,0,1,1.1-.7l.669,1.049a.652.652,0,0,1-.549,1" transform="translate(-221.41 -230.884)" fill="#063f71"/>
        <path id="Trazado_984" data-name="Trazado 984" d="M278.4,265.384a.652.652,0,0,1-.352-1.2l1.051-.672a.652.652,0,1,1,.7,1.1l-1.051.672a.651.651,0,0,1-.351.1" transform="translate(-226.091 -214.417)" fill="#063f71"/>
        <path id="Trazado_985" data-name="Trazado 985" d="M249.486,282.784a.652.652,0,0,1-.352-1.2l1.051-.672a.652.652,0,1,1,.7,1.1l-1.051.672a.651.651,0,0,1-.351.1" transform="translate(-202.553 -228.58)" fill="#063f71"/>
        <path id="Trazado_986" data-name="Trazado 986" d="M254.718,223.51a1.292,1.292,0,1,1-.387-1.787,1.291,1.291,0,0,1,.387,1.787" transform="translate(-205.407 -180.317)" fill="#fff"/>
        <path id="Trazado_987" data-name="Trazado 987" d="M250.778,221.9a1.948,1.948,0,1,1,.413-.044,1.957,1.957,0,0,1-.413.044m0-2.584a.64.64,0,1,0,.344.1.633.633,0,0,0-.344-.1" transform="translate(-202.555 -177.465)" fill="#063f71"/>
        <path id="Trazado_988" data-name="Trazado 988" d="M172.333,352.9a1.292,1.292,0,1,1-.384-1.785,1.291,1.291,0,0,1,.384,1.785" transform="translate(-138.345 -285.642)" fill="#fff"/>
        <path id="Trazado_989" data-name="Trazado 989" d="M168.394,351.3a1.948,1.948,0,1,1,.414-.044,1.961,1.961,0,0,1-.414.044m1.089-1.244h0Zm-1.085-1.339a.639.639,0,1,0,.347.1.639.639,0,0,0-.347-.1" transform="translate(-135.496 -282.793)" fill="#063f71"/>
        <path id="Trazado_990" data-name="Trazado 990" d="M19.089,238.867a7.108,7.108,0,0,0,2.187-.76,4.786,4.786,0,0,0,.975-2.139A5.626,5.626,0,0,0,23,238.182a6.516,6.516,0,0,0,2.143.948,5.469,5.469,0,0,0-2.087.829,7.046,7.046,0,0,0-1.073,2.068,5.971,5.971,0,0,0-.9-2.2,5.411,5.411,0,0,0-2-.966" transform="translate(-15.539 -192.08)" fill="#fff"/>
        <path id="Trazado_991" data-name="Trazado 991" d="M19.068,232.552a.652.652,0,0,1,.975.47,4.865,4.865,0,0,0,.584,1.86,5.7,5.7,0,0,0,1.834.764.652.652,0,0,1-.045,1.271,4.657,4.657,0,0,0-1.759.661,6.162,6.162,0,0,0-.906,1.807.652.652,0,0,1-1.255-.078,5.132,5.132,0,0,0-.73-1.876,4.685,4.685,0,0,0-1.695-.786.652.652,0,0,1,.044-1.271,6.258,6.258,0,0,0,1.9-.63,4.1,4.1,0,0,0,.742-1.76.652.652,0,0,1,.309-.431m1.262,3.688a2.556,2.556,0,0,1-.654-.464,2.258,2.258,0,0,1-.371-.571,2.2,2.2,0,0,1-.479.56,2.849,2.849,0,0,1-.635.357,2.635,2.635,0,0,1,.517.409,3.034,3.034,0,0,1,.521.816,3.226,3.226,0,0,1,.527-.714,2.535,2.535,0,0,1,.573-.394" transform="translate(-12.685 -189.227)" fill="#063f71"/>
        <path id="Trazado_992" data-name="Trazado 992" d="M44.264,314.878a.651.651,0,0,1,.626-.018l1.114.568a.652.652,0,0,1-.593,1.162l-1.114-.568a.652.652,0,0,1-.033-1.143" transform="translate(-35.769 -256.24)" fill="#063f71"/>
        <path id="Trazado_993" data-name="Trazado 993" d="M18.521,301.025a.652.652,0,0,1,.627-.018l1.107.568a.652.652,0,0,1-.595,1.161l-1.107-.568a.652.652,0,0,1-.032-1.143" transform="translate(-14.814 -244.964)" fill="#063f71"/>
        <path id="Trazado_994" data-name="Trazado 994" d="M25.416,321.326a.652.652,0,0,1,.91.859l-.568,1.111A.652.652,0,1,1,24.6,322.7l.568-1.111a.649.649,0,0,1,.251-.266" transform="translate(-19.964 -261.489)" fill="#063f71"/>
        <path id="Trazado_995" data-name="Trazado 995" d="M41.588,291.706a.652.652,0,0,1,.91.859l-.568,1.111a.652.652,0,0,1-1.161-.594l.568-1.111a.649.649,0,0,1,.251-.266" transform="translate(-33.128 -237.378)" fill="#063f71"/>
        <path id="Trazado_996" data-name="Trazado 996" d="M64.346,344.245a1.292,1.292,0,1,1,1.236,1.347,1.292,1.292,0,0,1-1.236-1.347" transform="translate(-52.377 -279.212)" fill="#fff"/>
        <path id="Trazado_997" data-name="Trazado 997" d="M61.8,339.768a1.95,1.95,0,1,1-.334.247,1.936,1.936,0,0,1,.334-.247m1.3,2.232a.64.64,0,1,0-.962-.581h0a.641.641,0,0,0,.613.667.633.633,0,0,0,.349-.086" transform="translate(-49.523 -276.359)" fill="#063f71"/>
      </g>
    </g>
  </g>
</svg>
