<svg xmlns="http://www.w3.org/2000/svg" width="90" height="90" viewBox="0 0 90 90">
  <g id="Grupo_2185" data-name="Grupo 2185" transform="translate(-0.015 0.002)">
    <path id="Trazado_390" data-name="Trazado 390" d="M26.653,86.224A10.82,10.82,0,0,1,18.646,82.4a1.261,1.261,0,0,1-.106-.153c-.233-.39-5.7-9.588-7.592-13.128C9.163,65.778,3.691,58.261,3.637,58.186a4.689,4.689,0,0,1-.949-3.426,3.742,3.742,0,0,1,1.461-2.525,4.47,4.47,0,0,1,3.286-.88,4.259,4.259,0,0,1,.528.106L6.4,48.92a4.27,4.27,0,0,1,1.645-5.8,4.368,4.368,0,0,1,4.763.191L11.5,39.891a4.025,4.025,0,0,1,.076-3.237,4.436,4.436,0,0,1,2.344-2.263,4.259,4.259,0,0,1,5.61,2.164c.3.757.622,1.569.958,2.411A4.371,4.371,0,0,1,23.5,35.179a4.268,4.268,0,0,1,5.432,2.57.884.884,0,0,1,.027.092l4.038,15.837a17.332,17.332,0,0,1,2.393-2.885c1.623-1.563,4.139-3.495,7.3-2.207a2.178,2.178,0,0,1,1.345,1.488c.4,1.58-.925,3.374-2.572,5.386-.2.245-.375.46-.5.626-3.547,4.689-2.837,8.8-.409,14.333,2.368,5.392.968,9.9-3.843,12.365l-.083.038-5.909,2.525a10.043,10.043,0,0,1-4.063.88m-5.935-5.4a7.781,7.781,0,0,0,8.964,2.132l5.873-2.508c3.544-1.836,4.42-4.858,2.608-8.984-2.667-6.083-3.565-11.292.721-16.951.141-.18.337-.427.563-.705A14.753,14.753,0,0,0,41.453,50.9c-1.3-.411-2.559.115-4.259,1.76a15.2,15.2,0,0,0-3.333,4.855c-.076.17-.132.289-.164.348a1.3,1.3,0,0,1-2.4-.307L26.449,38.535a1.764,1.764,0,0,0-3.307,1.138.318.318,0,0,0,.023.078l4.148,16a1.3,1.3,0,0,1-1.681,1.558c-.633-.216-.633-.216-2.083-3.74-.653-1.585-1.544-3.787-2.653-6.548-1.908-4.75-3.787-9.493-3.787-9.493a1.659,1.659,0,0,0-2.2-.736,1.845,1.845,0,0,0-.981.934,1.443,1.443,0,0,0-.032,1.167l.014.036L21.5,58.672a1.3,1.3,0,0,1-2.359,1.082L11.639,45.791a1.664,1.664,0,0,0-2.281-.444,1.664,1.664,0,0,0-.721,2.223l9.4,15.3A1.3,1.3,0,0,1,15.9,64.367L8.07,54.491a1.462,1.462,0,0,0-.986-.572,1.847,1.847,0,0,0-1.358.373,1.16,1.16,0,0,0-.458.808,2.164,2.164,0,0,0,.453,1.529c.247.339,5.652,7.767,7.52,11.265,1.764,3.3,6.89,11.94,7.478,12.932M41.714,51Z" transform="translate(-1.563 -19.117)" fill="#414d5f"/>
    <path id="Trazado_392" data-name="Trazado 392" d="M128.9,118.522a12.847,12.847,0,0,1-4.222-.734l-7.606-2.553-.106-.04a10.876,10.876,0,0,1-6.737-7.424,13.215,13.215,0,0,1,.705-7.632c2.474-7.145,2.952-12.356-1.935-17.853-.18-.193-.408-.438-.678-.721-2.261-2.353-4.1-4.467-3.758-6.483a2.725,2.725,0,0,1,1.529-1.984c3.828-1.913,7.161.242,9.334,2.029a21.569,21.569,0,0,1,3.275,3.361l3.468-20.165q.009-.056.023-.114a5.329,5.329,0,0,1,6.523-3.751,5.59,5.59,0,0,1,3.439,2.5,5.164,5.164,0,0,1,.7,1.912c.332-1.082.649-2.108.945-3.066a5.45,5.45,0,0,1,10.365,3.334l-1.3,4.387a5.17,5.17,0,0,1,1.675-.965,5.626,5.626,0,0,1,7.1,3.426,5.038,5.038,0,0,1-.213,3.892l-1.71,3.358a5.388,5.388,0,0,1,.662-.189,5.59,5.59,0,0,1,4.186.777,5.295,5.295,0,0,1,1.212,7.421c-.043.07-6.12,10-8.018,14.342-2.009,4.6-7.913,16.627-8.164,17.131a1.582,1.582,0,0,1-.119.206,13.42,13.42,0,0,1-10.569,5.6m-10.737-6.355,7.574,2.539a9.76,9.76,0,0,0,11-3.551c.64-1.3,6.167-12.589,8.041-16.881,1.984-4.553,7.99-14.354,8.245-14.769a2.146,2.146,0,0,0-.216-2.95,2.3,2.3,0,0,0-1.728-.335,1.8,1.8,0,0,0-1.156.784l-8.833,13.128a1.625,1.625,0,1,1-2.8-1.646l10.218-20.073a1.793,1.793,0,0,0,.052-1.369,2.371,2.371,0,0,0-2.947-1.417,1.814,1.814,0,0,0-1.042.9L136.582,84.7a1.624,1.624,0,1,1-3.051-1.116l7.513-25.394a.064.064,0,0,1,.013-.045A2.2,2.2,0,0,0,136.9,56.78s-1.87,6.092-3.771,12.2c-1.107,3.556-2,6.395-2.658,8.438-1.457,4.539-1.457,4.539-2.218,4.869a1.623,1.623,0,0,1-2.263-1.773l3.587-20.377a.432.432,0,0,1,.023-.106,1.816,1.816,0,0,0-.229-1.38,2.314,2.314,0,0,0-1.43-1.024,2.086,2.086,0,0,0-2.573,1.32L121.2,83.164a1.623,1.623,0,0,1-2.961.624c-.049-.074-.133-.22-.247-.431a18.935,18.935,0,0,0-4.635-5.713c-2.285-1.879-3.908-2.411-5.495-1.774a18.5,18.5,0,0,0,2.8,3.448c.3.316.568.593.763.81,5.9,6.633,5.3,13.222,2.579,21.077a18.492,18.492,0,0,0-.635,2.409c-.88,3.7.674,6.822,4.788,8.553" transform="translate(-66.764 -28.524)" fill="#414d5f"/>
    <path id="Trazado_393" data-name="Trazado 393" d="M49.528,141.92a1.453,1.453,0,0,1-1.239-.691l-4.936-8a1.454,1.454,0,1,1,2.474-1.527l4.936,8a1.453,1.453,0,0,1-1.235,2.218" transform="translate(-25.258 -75.231)" fill="#414d5f"/>
    <path id="Trazado_394" data-name="Trazado 394" d="M162.907,159.751a1.455,1.455,0,0,1-1.289-2.124l4-7.72a1.454,1.454,0,0,1,2.582,1.338l-4,7.72a1.454,1.454,0,0,1-1.291.786" transform="translate(-94.501 -85.633)" fill="#414d5f"/>
    <path id="Trazado_395" data-name="Trazado 395" d="M108.949,29.117a1.455,1.455,0,0,1-1.25-.709A16.278,16.278,0,0,0,95.459,21.6c-11.5-1.109-17,5.477-17.232,5.758a1.454,1.454,0,1,1-2.265-1.823c.265-.332,6.654-8.1,19.777-6.829a19.178,19.178,0,0,1,14.454,8.221,1.455,1.455,0,0,1-1.248,2.2" transform="translate(-44.28 -10.862)" fill="#414d5f"/>
    <path id="Trazado_396" data-name="Trazado 396" d="M110.5,47.055a1.455,1.455,0,0,1-1.262-.741,11.541,11.541,0,0,0-19.717-.64,1.454,1.454,0,1,1-2.436-1.589,14.452,14.452,0,0,1,24.687.8,1.455,1.455,0,0,1-1.262,2.164" transform="translate(-50.833 -21.563)" fill="#414d5f"/>
    <path id="Trazado_398" data-name="Trazado 398" d="M185.549,19.3a1.453,1.453,0,0,1-1.428-1.185,7.456,7.456,0,0,0-.9-2.577,9.061,9.061,0,0,0-2.654-.936,1.453,1.453,0,0,1-.022-2.837,6.971,6.971,0,0,0,2.436-1A9.294,9.294,0,0,0,184.153,8.1a1.453,1.453,0,0,1,2.8.058,7.807,7.807,0,0,0,1.12,2.627,6.809,6.809,0,0,0,2.443.974,1.453,1.453,0,0,1,.029,2.837,9.614,9.614,0,0,0-2.7,1,6.178,6.178,0,0,0-.866,2.481,1.455,1.455,0,0,1-1.417,1.221h-.018m-.79-6.232a3.247,3.247,0,0,1,.494.388,3.084,3.084,0,0,1,.307.35,3.145,3.145,0,0,1,.391-.409,3.507,3.507,0,0,1,.379-.281c-.1-.076-.18-.153-.27-.234a4.025,4.025,0,0,1-.541-.662,3.968,3.968,0,0,1-.438.557,3.331,3.331,0,0,1-.321.294" transform="translate(-105.02 -4.13)" fill="#414d5f"/>
    <path id="Trazado_405" data-name="Trazado 405" d="M193.578,57.431a1.453,1.453,0,0,1-.483-2.826l1.372-.483a1.454,1.454,0,0,1,.967,2.743l-1.372.483a1.442,1.442,0,0,1-.483.083" transform="translate(-112.449 -31.081)" fill="#414d5f"/>
    <path id="Trazado_406" data-name="Trazado 406" d="M208.127,52.62a1.453,1.453,0,0,1-.485-2.826l1.374-.485a1.454,1.454,0,1,1,.968,2.743l-1.374.485a1.457,1.457,0,0,1-.485.083" transform="translate(-120.965 -28.313)" fill="#414d5f"/>
    <path id="Trazado_407" data-name="Trazado 407" d="M199.639,46.464a1.455,1.455,0,0,1-1.37-.968l-.487-1.372a1.454,1.454,0,1,1,2.741-.972l.487,1.372a1.455,1.455,0,0,1-1.37,1.94" transform="translate(-115.712 -24.258)" fill="#414d5f"/>
    <path id="Trazado_408" data-name="Trazado 408" d="M205.078,63.267a1.455,1.455,0,0,1-1.371-.968l-.487-1.374a1.454,1.454,0,0,1,2.741-.972l.487,1.374a1.455,1.455,0,0,1-1.371,1.94" transform="translate(-118.895 -33.918)" fill="#414d5f"/>
    <path id="Trazado_409" data-name="Trazado 409" d="M1.444,41.372a1.455,1.455,0,0,1-.487-2.817l1.374-.489A1.454,1.454,0,1,1,3.3,40.808L1.93,41.3a1.454,1.454,0,0,1-.487.085" transform="translate(0 -21.839)" fill="#414d5f"/>
    <path id="Trazado_410" data-name="Trazado 410" d="M15.99,36.561a1.453,1.453,0,0,1-.483-2.826l1.371-.483a1.454,1.454,0,0,1,.967,2.743l-1.371.483a1.443,1.443,0,0,1-.483.083" transform="translate(-8.519 -19.41)" fill="#414d5f"/>
    <path id="Trazado_411" data-name="Trazado 411" d="M7.511,30.409a1.455,1.455,0,0,1-1.37-.966l-.487-1.378a1.454,1.454,0,1,1,2.739-.974l.489,1.374a1.453,1.453,0,0,1-1.371,1.942" transform="translate(-3.27 -15.285)" fill="#414d5f"/>
    <path id="Trazado_412" data-name="Trazado 412" d="M12.952,47.207a1.455,1.455,0,0,1-1.372-.972L11.1,44.863a1.455,1.455,0,1,1,2.745-.965l.481,1.372a1.455,1.455,0,0,1-1.372,1.937" transform="translate(-6.459 -24.687)" fill="#414d5f"/>
    <path id="Trazado_416" data-name="Trazado 416" d="M117.473,66.713a3.865,3.865,0,1,1,3.865-3.866,3.864,3.864,0,0,1-3.865,3.866m0-4.82a.956.956,0,1,0,.958.954.956.956,0,0,0-.958-.954" transform="translate(-68.733 -36.334)" fill="#414d5f"/>
    <path id="Trazado_418" data-name="Trazado 418" d="M44.472,20.223a3.861,3.861,0,1,1,3.863-3.861,3.861,3.861,0,0,1-3.863,3.861m0-4.815a.954.954,0,1,0,.676.279.954.954,0,0,0-.676-.279" transform="translate(-23.778 -7.313)" fill="#414d5f"/>
    <path id="Trazado_419" data-name="Trazado 419" d="M111.6,15.646a1.453,1.453,0,0,1-1.232-.678A26.952,26.952,0,0,0,69.751,9.944a1.457,1.457,0,1,1-1.984-2.133,29.859,29.859,0,0,1,45.061,5.6,1.453,1.453,0,0,1-1.228,2.231" transform="translate(-39.404 -0.001)" fill="#414d5f"/>
  </g>
</svg>
