<svg xmlns="http://www.w3.org/2000/svg" xmlns:xlink="http://www.w3.org/1999/xlink" width="90" height="90" viewBox="0 0 90 90">
  <defs>
    <clipPath id="clip-path">
      <rect id="Rectángulo_17" data-name="Rectángulo 17" width="90" height="90" fill="#414d5f"/>
    </clipPath>
  </defs>
  <g id="Grupo_15" data-name="Grupo 15" clip-path="url(#clip-path)">
    <path id="Trazado_40" data-name="Trazado 40" d="M63.855,74.225H12.18c-6.6.138-12.05-6.349-12.18-14.5V26.83c.131-8.155,5.578-14.643,12.18-14.506H63.855c6.6-.138,12.051,6.35,12.182,14.506V59.721c-.131,8.156-5.579,14.644-12.182,14.506M12.18,18.026c-4-.078-7.307,3.858-7.387,8.8V59.721c.081,4.946,3.383,8.88,7.387,8.8H63.855c4,.078,7.306-3.856,7.387-8.8V26.83c-.08-4.947-3.382-8.882-7.387-8.8Z" transform="translate(0 15.778)" fill="#414d5f"/>
    <path id="Trazado_41" data-name="Trazado 41" d="M71.137,61.9H19.469c-6.6.137-12.05-6.351-12.18-14.506V14.507C7.42,6.352,12.867-.136,19.469,0H71.137c6.6-.138,12.051,6.35,12.182,14.506V47.4C83.188,55.555,77.74,62.042,71.137,61.9M19.469,5.7c-4.007-.082-7.312,3.855-7.392,8.8V47.4c.08,4.947,3.382,8.882,7.387,8.8H71.137c4,.078,7.307-3.858,7.387-8.8V14.507c-.08-4.947-3.382-8.882-7.387-8.8Z" transform="translate(6.672 -0.001)" fill="#414d5f"/>
  </g>
</svg>
