<svg id="slash-circle" xmlns="http://www.w3.org/2000/svg" width="60" height="60" viewBox="0 0 60 60">
  <path id="Trazado_1739" data-name="Trazado 1739" d="M30,56.25A26.25,26.25,0,1,1,56.25,30,26.25,26.25,0,0,1,30,56.25M30,60A30,30,0,1,0,0,30,30,30,0,0,0,30,60" fill="#fff"/>
  <path id="Trazado_1740" data-name="Trazado 1740" d="M33.744,5.126a2.133,2.133,0,0,0-3.021,0l-25.6,25.6a2.136,2.136,0,0,0,3.021,3.021l25.6-25.6a2.133,2.133,0,0,0,0-3.021" transform="translate(10.565 10.565)" fill="#fff"/>
</svg>
