<?xml version="1.0" encoding="UTF-8"?>
<svg id="Layer_1" xmlns="http://www.w3.org/2000/svg" xmlns:xlink="http://www.w3.org/1999/xlink" version="1.1" viewBox="0 0 70.766 61.127">
  <!-- Generator: Adobe Illustrator 29.0.0, SVG Export Plug-In . SVG Version: 2.1.0 Build 186)  -->
  <defs>
    <clipPath id="clippath">
      <rect x="8.566" y="7.4" width="53.634" height="46.328" fill="none"/>
    </clipPath>
  </defs>
  <g id="Group_218" opacity=".8">
    <g clip-path="url(#clippath)">
      <g id="Group_217">
        <path id="Path_240" d="M35.382,7.4c-14.799-.01-26.803,11.979-26.813,26.777-.005,7.178,2.871,14.058,7.982,19.098.602.607,1.582.611,2.189.009.297-.294.462-.696.458-1.113v-1.366c-.005-4.794,3.596-8.826,8.36-9.361h.058c.335-.038.671-.057,1.008-.058h13.524c5.199.008,9.413,4.22,9.421,9.42v1.366c-.009.855.677,1.555,1.532,1.564.419.004.822-.162,1.117-.46,10.536-10.395,10.65-27.362.255-37.898-5.04-5.108-11.917-7.982-19.093-7.977M36.815,38.272h-2.869c-5.651-.792-9.59-6.015-8.798-11.665.792-5.651,6.015-9.59,11.665-8.798,5.651.792,9.59,6.015,8.798,11.665-.64,4.568-4.23,8.158-8.798,8.798" fill="#414d5f"/>
      </g>
    </g>
  </g>
</svg>