<svg xmlns="http://www.w3.org/2000/svg" width="60" height="60" viewBox="0 0 60 60">
  <g id="Grupo_3158" data-name="Grupo 3158" transform="translate(6385 -5747)">
    <path id="database" d="M7.291,5.02A20.229,20.229,0,0,1,15.7,3.383,20.191,20.191,0,0,1,24.1,5.02c2.2,1.044,3.009,2.24,3.009,3.129S26.3,10.233,24.1,11.277A20.229,20.229,0,0,1,15.7,12.914a20.191,20.191,0,0,1-8.405-1.637c-2.2-1.044-3.009-2.24-3.009-3.129S5.1,6.063,7.291,5.02M27.11,12.194v3.1c0,.891-.813,2.085-3.009,3.129A20.229,20.229,0,0,1,15.7,20.063a20.191,20.191,0,0,1-8.405-1.637c-2.2-1.044-3.009-2.24-3.009-3.129v-3.1a11.137,11.137,0,0,0,2.064,1.251A22.385,22.385,0,0,0,15.7,15.3a22.385,22.385,0,0,0,9.35-1.851,11.308,11.308,0,0,0,2.064-1.251m2.283-4.046c0-2.4-2-4.182-4.346-5.3A22.385,22.385,0,0,0,15.7,1a22.385,22.385,0,0,0-9.35,1.851C4,3.967,2,5.749,2,8.148V29.594c0,2.4,2,4.182,4.346,5.3a22.422,22.422,0,0,0,9.35,1.851,22.385,22.385,0,0,0,9.35-1.851c2.349-1.115,4.346-2.9,4.346-5.3ZM27.11,19.343v3.1c0,.891-.813,2.085-3.009,3.129A20.229,20.229,0,0,1,15.7,27.211a20.191,20.191,0,0,1-8.405-1.637c-2.2-1.044-3.009-2.24-3.009-3.129v-3.1a11.137,11.137,0,0,0,2.064,1.251,22.422,22.422,0,0,0,9.35,1.851,22.385,22.385,0,0,0,9.35-1.851,11.308,11.308,0,0,0,2.064-1.251m0,7.148v3.1c0,.891-.813,2.085-3.009,3.129A20.229,20.229,0,0,1,15.7,34.359a20.191,20.191,0,0,1-8.405-1.637c-2.2-1.044-3.009-2.24-3.009-3.129v-3.1a11.137,11.137,0,0,0,2.064,1.251,22.422,22.422,0,0,0,9.35,1.851,22.385,22.385,0,0,0,9.35-1.851,11.137,11.137,0,0,0,2.064-1.251" transform="translate(-6370.696 5758.129)" fill="#fff"/>
    <path id="Trazado_1745" data-name="Trazado 1745" d="M30,56.25A26.25,26.25,0,1,1,56.25,30,26.25,26.25,0,0,1,30,56.25M30,60A30,30,0,1,0,0,30,30,30,0,0,0,30,60" transform="translate(-6385 5747)" fill="#fff"/>
  </g>
</svg>
