<?xml version="1.0" encoding="UTF-8"?>
<svg xmlns="http://www.w3.org/2000/svg" xmlns:xlink="http://www.w3.org/1999/xlink" version="1.1" viewBox="0 0 407.996 74.814">
  <defs>
    <clipPath id="clippath">
      <rect x="19.248" y="3.53" width="369.5" height="67.755" fill="none"/>
    </clipPath>
  </defs>
  <!-- Generator: Adobe Illustrator 28.7.1, SVG Export Plug-In . SVG Version: 1.2.0 Build 142)  -->
  <g>
    <g id="Layer_1">
      <g clip-path="url(#clippath)">
        <g id="Group_477">
          <path id="Path_381" d="M44.148,30.266c-1.109-1.957-3.183-3.169-5.433-3.174v-8.363c4.789-.112,9.293,2.268,11.9,6.287,1.587,2.2,3.214,5.862,4.883,10.987.749,2.549,1.688,5.038,2.808,7.447.081.163.162.346.244.549l8.912-25.149h9.034l-13.177,36.626c-3.222.306-6.414-.821-8.729-3.083-2.506-2.732-4.399-5.967-5.554-9.49-.042-.122-.122-.345-.244-.672l-4.761,13.245h-.061v.061c-3.249.257-6.454-.875-8.822-3.114-2.547-2.672-4.456-5.885-5.585-9.4-.285-.813-.702-2.075-1.251-3.784-.549-1.709-1.067-3.215-1.556-4.517-.441-1.198-.971-2.361-1.587-3.479-1.465-2.726-3.438-4.069-5.921-4.029v-8.363c4.776-.118,9.275,2.236,11.9,6.227,1.587,2.238,3.214,5.9,4.883,10.987.734,2.554,1.673,5.044,2.808,7.447l.366.733,4.943-13.979Z" fill="#063f71"/>
          <path id="Path_382" d="M92.911,46.93c1.553.008,3.085-.37,4.456-1.1,1.36-.712,2.532-1.737,3.418-2.991l7.02,5.006c-1.694,2.347-3.908,4.269-6.47,5.616-8.975,4.655-20.025,1.153-24.68-7.822-1.349-2.6-2.054-5.486-2.056-8.415.015-10.107,8.205-18.297,18.312-18.312,2.39-.017,4.761.418,6.989,1.282,2.09.797,3.977,2.048,5.524,3.663.406.488.813.966,1.221,1.435.359.408.695.836,1.007,1.282.267.387.552.815.855,1.282.303.467.537.834.7,1.1.162.267.355.623.58,1.069s.377.741.458.885c.081.143.214.408.4.794.109.206.201.42.275.641l-24.296,12.265c1.735,1.526,3.976,2.353,6.287,2.32M92.911,27.58c-2.477-.034-4.868.909-6.654,2.625-1.831,1.663-2.911,3.997-2.991,6.47l15.016-7.447c-1.58-1.084-3.455-1.659-5.371-1.648" fill="#063f71"/>
          <path id="Path_383" d="M121.221,10.672v44.864h-8.607V16.591c.016-1.142-.45-2.239-1.282-3.021-.806-.814-1.907-1.265-3.052-1.251V3.652h5.982c1.85-.026,3.628.714,4.913,2.045,1.339,1.305,2.079,3.105,2.045,4.975" fill="#063f71"/>
          <path id="Path_384" d="M158.841,28.193l-7.508,4.273c-.856-1.465-2.075-2.685-3.541-3.54-3.799-2.243-8.636-1.626-11.75,1.5-1.845,1.78-2.872,4.243-2.838,6.806-.012,1.707.441,3.385,1.312,4.853.855,1.466,2.075,2.686,3.541,3.541,2.859,1.67,6.376,1.751,9.309.214,1.36-.712,2.531-1.738,3.418-2.991l7.02,5.006c-1.694,2.347-3.908,4.269-6.47,5.616-8.975,4.655-20.025,1.153-24.68-7.822-1.349-2.6-2.054-5.486-2.056-8.415-.022-3.216.822-6.378,2.442-9.156,1.593-2.773,3.888-5.078,6.654-6.684,4.756-2.768,10.507-3.242,15.652-1.292,4.001,1.522,7.355,4.379,9.492,8.088" fill="#063f71"/>
          <path id="Path_385" d="M189.971,50.195c-7.156,7.147-18.75,7.139-25.897-.017-3.432-3.437-5.359-8.097-5.355-12.954-.028-10.052,8.097-18.223,18.149-18.251.054,0,.109,0,.163,0,10.1-.015,18.3,8.161,18.315,18.261,0,.007,0,.014,0,.021.08,4.871-1.865,9.558-5.372,12.94M170.166,44.095c3.776,3.776,9.897,3.776,13.673,0,3.776-3.776,3.776-9.897,0-13.673s-9.897-3.776-13.673,0c-3.776,3.776-3.776,9.897,0,13.673h0" fill="#063f71"/>
          <path id="Path_386" d="M223.231,55.533v-20.75c.017-4.028-3.235-7.308-7.263-7.325-.01,0-.021,0-.031,0-1.932-.034-3.791.74-5.127,2.136-1.381,1.369-2.142,3.244-2.106,5.188v20.751h-8.606v-23.8c-.023-2.384-1.95-4.311-4.334-4.334v-8.609h5.982c2.141-.047,4.17.956,5.432,2.686,2.581-1.73,5.622-2.645,8.729-2.625,4.408-.083,8.636,1.742,11.6,5.006,5.104-5.378,13.226-6.564,19.655-2.869,2.408,1.391,4.409,3.392,5.8,5.8,1.42,2.426,2.158,5.19,2.136,8v7.813c-.015,1.145.437,2.247,1.251,3.052.782.833,1.879,1.298,3.021,1.282v8.598h-5.921c-1.87.035-3.67-.705-4.975-2.045-1.331-1.285-2.071-3.064-2.045-4.914v-13.791c.034-1.95-.739-3.828-2.136-5.188-1.341-1.389-3.197-2.161-5.127-2.136-2.615-.019-5.039,1.368-6.348,3.632-.646,1.101-.984,2.356-.977,3.632v20.81h-8.61Z" fill="#063f71"/>
          <path id="Path_387" d="M277.587,46.93c1.554.008,3.085-.37,4.456-1.1,1.36-.712,2.532-1.737,3.418-2.991l7.019,5.006c-1.693,2.347-3.908,4.269-6.47,5.616-8.976,4.655-20.025,1.152-24.68-7.824-1.348-2.6-2.053-5.485-2.055-8.413.015-10.107,8.205-18.297,18.312-18.312,2.39-.017,4.761.418,6.989,1.282,2.09.797,3.977,2.048,5.524,3.663.406.488.813.966,1.221,1.435.359.408.695.836,1.007,1.282.267.387.552.815.855,1.282.303.467.537.834.7,1.1.162.267.355.623.58,1.069.225.446.377.741.458.885.081.143.214.408.4.794.109.206.201.42.275.641l-24.296,12.265c1.735,1.526,3.976,2.353,6.287,2.32M277.587,27.58c-2.477-.034-4.867.909-6.654,2.625-1.831,1.663-2.911,3.997-2.991,6.47l15.016-7.447c-1.58-1.084-3.455-1.659-5.371-1.648" fill="#063f71"/>
          <path id="Path_388" d="M301.571,50.165c-3.5-3.387-5.444-8.07-5.371-12.94-.073-4.87,1.871-9.554,5.371-12.941,3.387-3.501,8.071-5.445,12.942-5.372,3.458-.023,6.849.952,9.767,2.808v-11.17c-.007-1.234.319-2.447.945-3.51.616-1.064,1.5-1.947,2.563-2.564,1.063-.626,2.275-.953,3.509-.945h5.921v8.667c-.566-.001-1.126.112-1.647.333-1.038.427-1.862,1.251-2.289,2.289-.223.521-.337,1.082-.336,1.648v26c-.012.773.188,1.534.579,2.2.378.643.914,1.178,1.557,1.556.646.386,1.385.586,2.137.58v8.607h-5.921c-1.23.008-2.441-.308-3.51-.916-1.056-.587-1.932-1.452-2.533-2.5-7.257,5.343-17.333,4.564-23.683-1.831M307.645,30.356c-3.776,3.763-3.786,9.874-.023,13.65.008.008.015.015.023.023,3.78,3.776,9.905,3.773,13.681-.007,1.803-1.805,2.82-4.248,2.83-6.799.015-3.452-1.811-6.65-4.791-8.393-3.8-2.209-8.612-1.583-11.72,1.526" fill="#00d498"/>
          <path id="Path_389" d="M350.017,10.55v44.987h-8.607V16.47c.016-1.142-.45-2.239-1.282-3.021-.805-.814-1.907-1.265-3.052-1.251V3.53h5.982c1.85-.026,3.628.714,4.913,2.045,1.339,1.305,2.079,3.105,2.045,4.975" fill="#00d498"/>
          <path id="Path_390" d="M380.081,19.034h8.667v33.939c.008,10.107-8.179,18.306-18.286,18.314-3.212.002-6.368-.84-9.151-2.444-2.72-1.561-4.999-3.787-6.623-6.47l7.447-4.456c.849,1.418,2.046,2.595,3.479,3.418,4.633,2.656,10.542,1.053,13.199-3.58.639-1.115,1.049-2.345,1.207-3.62-2.189,1.056-4.59,1.599-7.02,1.587-8.776.023-15.908-7.073-15.931-15.849,0-.007,0-.015,0-.022v-7.877c-.024-2.383-1.951-4.31-4.334-4.334v-8.606h5.982c1.85-.026,3.629.714,4.914,2.045,1.339,1.305,2.078,3.106,2.044,4.975v13.734c-.033,1.956.753,3.837,2.167,5.188,1.355,1.388,3.219,2.159,5.158,2.136,1.763.022,3.486-.524,4.914-1.557,1.358-.876,2.175-2.384,2.167-4v-22.521Z" fill="#00d498"/>
        </g>
      </g>
    </g>
  </g>
</svg>